<?xml version="1.0" encoding="utf-8" ?><svg xmlns="http://www.w3.org/2000/svg" xmlns:xlink="http://www.w3.org/1999/xlink" width="516" height="454" viewBox="0 0 516 454"><path fill="white" d="M0 0L516 0L516 454L0 454L0 0Z"/><path fill="#403F40" d="M167.831 114.503L201.43 114.486C208.944 114.48 216.793 114.303 224.252 114.855C225.4 119.931 227.981 123.178 229.668 127.702C233.969 139.238 239.648 149.85 244.677 161.007L280.676 241.264C282.762 245.826 285.782 250.893 287.611 255.422C294.051 271.906 302.906 287.391 309.321 303.846C312.491 311.978 319.387 321.793 320.85 329.998C322.011 336.503 321.58 348.156 317.868 353.705C316.372 355.943 313.875 358.497 312.14 360.823C309.614 356.729 308.172 352.71 305.925 348.678C300.357 338.688 296.597 328.252 291.823 317.955L248.597 222.738L219.015 157.652C216.818 152.841 214.252 148.011 212.007 143.2C210.919 140.869 209.447 138.817 208.484 136.334L195.688 136.267L195.86 140.424C198.711 143.378 206.482 163.123 209.045 168.116C210.369 170.694 212.741 175.42 213.988 178.201C215.958 182.597 217.769 187.244 219.798 191.675L236.004 226.671C238.345 231.784 240.894 236.557 243.266 241.592C245.546 246.431 247.477 251.787 249.737 256.715C252.746 263.445 256.645 270.052 259.596 276.768C262.903 284.234 265.7 292.544 269.833 299.6C276.07 310.084 278.952 321.715 285.143 332.212C291.83 343.549 294.431 355.956 302.452 366.687C297.265 367.324 279.588 368.579 275.948 364.585C271.275 359.456 267.814 348.698 264.772 342.118L248.875 307.593C246.201 301.751 243.004 296.078 240.363 290.217C238.128 285.256 236.138 280.2 233.9 275.228C230.477 267.626 226.288 260.433 223.142 252.711C220.389 245.828 217.441 239.11 213.986 232.544C212.699 230.097 211.331 227.512 210.169 225.011L180.353 160.013C179.022 157.17 177.312 151.203 175.281 149.02C175.197 148.929 174.98 148.819 174.826 148.938C171.737 151.328 169.396 159.322 167.789 162.462C162.875 172.067 158.36 181.636 154.7 191.704C151.431 198.016 148.34 204.419 145.429 210.904C143.11 216.205 141.019 221.883 138.637 227.076L86.8975 340.382C83.1697 348.416 80.3709 357.19 76.0243 365.105C74.101 368.608 62.4222 394.77 62.9982 396.454C63.0955 396.495 63.1927 396.536 63.2899 396.577C75.0653 398.343 77.7964 388.231 82.1324 379.757C85.5173 373.142 88.1372 366.222 91.1489 359.456L105.929 326.891C108.477 321.15 111.647 315.459 114.278 309.716L138.032 256.714C139.763 252.882 141.901 249.246 143.652 245.461C146.336 240.016 148.178 233.776 150.835 228.364C156.532 216.76 162.037 205.213 166.872 193.213C168.458 189.278 170.854 185.523 172.623 181.642C173.834 178.987 174.746 176.431 175.701 173.681C176.132 174.194 177.839 176.215 178.168 176.872C180.379 181.59 187.943 194.296 187.962 199.246C187.982 204.373 178.41 221.584 176.274 226.337L132.564 322.423C130.034 327.964 127.851 334.559 125.186 339.824C119.105 351.836 113.826 363.837 108.543 376.204C107.512 378.617 105.967 381.23 104.781 383.68C101.002 391.489 98.5007 400.567 92.3644 406.913C87.896 411.362 80.7403 417.05 74.5478 418.304C66.867 419.86 57.4284 419.457 49.5952 419.463L27.991 419.51C31.9788 407.978 35.9191 401.535 40.6773 390.794L71.4664 322.492C73.0126 319.041 74.1014 314.876 75.6415 311.47L165.064 114.75L167.831 114.503Z"/><path fill="#294665" d="M396.113 41.9399C410.912 41.2068 414.48 42.9693 421.661 55.4764C426.227 55.0443 468.366 54.7575 470.109 55.76C471.031 56.2905 471.526 57.427 471.707 58.4247C471.908 59.5367 472.023 61.2224 471.323 62.1862C470.3 63.5943 467.578 63.6209 465.962 63.8401C465.706 70.767 465.584 77.6982 465.596 84.6299C468.355 85.2613 473.349 86.8415 471.761 90.8572C470.889 93.0624 467.815 94.009 465.75 94.817C465.441 98.1639 465.711 108.366 466.078 111.484C467.946 112.409 469.339 113.264 470.89 114.636C471.192 118.654 472.035 124.932 469.223 128.155C467.612 130.001 465.798 130.759 463.403 130.9C459.173 131.147 418.788 131.217 417.076 130.629C415.739 130.17 413.564 126.273 412.166 125.04C407.841 121.226 402.698 119.589 397.015 119.963C392.697 130.737 388.349 141.239 383.698 151.877C380.282 159.689 378.176 168.124 374.129 175.748C373.004 177.866 372.202 180.882 371.519 183.22C375.336 184.075 375.966 185.017 378.147 188.062C374.097 195.767 370.899 205.4 367.588 213.514C366.274 216.733 365.378 220.294 364.116 223.554C361.417 230.519 358.149 237.234 355.268 244.119C352.596 250.39 350.811 257.273 348.376 263.443L332.735 302.458C330.875 307.181 327.395 314.433 326.269 319.077C323.441 314.598 322.091 311.226 319.736 306.894C315.493 299.088 313.102 294.51 310.412 285.994C313.394 275.116 318.467 266.067 322.872 255.879C325.853 248.984 328.262 241.544 331.265 234.469L343.828 204.112C346.171 198.353 348.092 195.981 349.485 189.483C354.751 190.249 359.722 192.798 364.362 195.352C365.285 193.339 366.257 192.289 367.776 190.718C363.28 188.111 359.787 186.626 354.913 184.899C352.498 184.043 349.143 182.934 346.947 181.786C345.547 187.403 341.112 196.034 338.705 201.87L318.472 251.951C314.199 262.403 310.449 267.093 307.538 278.986C306.384 277.379 304.625 275.323 303.667 273.769C303.364 273.278 303.048 271.264 302.449 270.064C301.841 269.744 301.686 269.651 301.136 269.242C301.232 268.233 301.436 268.735 302.382 268.014C302.378 268.017 302.959 266.201 303.007 266.045C304.229 262.091 306.201 258.418 307.797 254.59C309.994 249.322 312.06 244.201 313.901 238.795C314.729 236.364 316.603 232.927 317.757 230.527C319.36 227.131 320.883 223.697 322.324 220.229L336.172 187.66C337.233 185.227 341.041 174.119 343.55 172.739C345.657 171.581 351.96 174.587 354.449 175.741C356.597 170.848 358.016 166.538 359.984 161.772L373.62 128.715C375.408 124.331 377.911 120.038 379.638 115.544C381.268 111.299 380.577 106.587 382.221 102.554C385.336 94.9123 393.566 95.9238 399.69 94.045C403.34 92.9255 409.455 90.5683 413.005 89.0857C416.086 84.0289 413.02 83.0958 408.299 81.9423C393.212 78.2554 394.392 68.4395 394.692 55.1998C397.436 55.4653 409.319 55.7532 411.215 54.7323L411.275 54.1898C408.751 48.2314 400.138 49.9348 394.654 49.9041C394.264 48.3991 393.801 47.3273 393.215 45.8912C393.939 43.9815 394.023 42.2927 396.113 41.9399Z"/><path fill="white" d="M422.011 63.5525C429.067 63.448 436.124 63.4004 443.181 63.4097C447.579 63.403 453.539 63.2647 457.835 63.7092C458.356 70.596 458.185 78.1933 458.039 85.0908C446.984 85.44 433.305 85.4511 422.243 85.1558C422.001 77.9574 421.923 70.7544 422.011 63.5525Z"/><path fill="white" d="M424.35 93.816C431.111 93.689 437.874 93.6763 444.636 93.7778C448.076 93.8038 454.949 93.756 457.961 94.2959C458.152 98.5861 458.523 107.714 457.52 112.094C457.416 112.549 456.797 112.606 456.342 112.729C450.549 113.171 444.448 112.851 438.621 112.825C433.318 112.801 427.825 113.064 422.555 112.71C422.076 109.871 421.687 97.2773 422.194 94.4029C422.91 93.8189 423.315 93.9451 424.35 93.816Z"/></svg>