<?xml version="1.0" encoding="utf-8" ?><svg xmlns="http://www.w3.org/2000/svg" xmlns:xlink="http://www.w3.org/1999/xlink" width="1091" height="960" viewBox="0 0 1091 960"><path fill="#3E4549" d="M349.954 241.93C364.134 241.344 380.669 241.782 395.084 241.787L472.861 241.856C477.382 250.678 482.254 262.435 486.443 271.729L509.119 321.703L579.799 478.004L645.219 622.151C655.239 644.208 666.186 666.013 675.509 688.348C687.418 716.88 680.327 743.542 658.564 764.487C653.435 752.656 647.65 740.767 642.287 728.98L604.467 646.083L494.508 405.798L461.361 333.17C454.909 319.101 447.473 303.798 441.562 289.602L412.84 289.535L580.284 654.184L615.579 730.013C622.523 744.728 630.986 761.741 637.169 776.596C624.214 776.873 607.739 777.969 595.026 775.825C578.927 773.11 572.37 754.694 566.182 741.31L551.695 709.881L505.629 609.73L403.468 387.381C392.328 362.87 380.133 337.432 369.39 312.975C364.942 321.135 359.347 334.206 355.389 342.841L328.139 402.863L131.103 839.519C162.492 839.015 164.674 824.166 176.357 798.268L192.205 763.223L243.141 651.211L317.884 487.207C336.41 446.993 356.566 405.225 373.796 364.585C382.547 381.737 391.88 404.02 399.971 421.919C390.967 445.918 375.731 476.636 364.82 500.403L307.737 625.918L242.525 769.491C232.022 792.573 219.53 822.842 207.916 844.6C204.069 851.692 199.214 858.189 193.501 863.887C167.342 890.416 141.871 887.532 108.292 887.357L58.5887 887.446C64.2194 873.219 71.213 858.418 77.5633 844.455L100.814 792.919L173.243 632.417L291.412 371.424L332.903 279.672C338.549 267.224 344.124 254.234 349.954 241.93Z"/><path fill="#00115E" d="M871.143 116.666C866.755 110.899 863.712 108.018 856.072 106.825C847.791 105.549 838.684 109.551 832.47 102.034C829.749 98.7428 830.627 93.8158 834.11 91.9707C850.781 83.1387 873.984 90.1764 884.153 104.388C886.852 108.218 888.875 112.481 890.134 116.994C916.696 115.756 944.344 117.356 971.017 116.659C975.408 116.544 992.526 115.908 994.933 119.415C1001.31 128.694 995.794 134.252 985.488 134.822L985.506 180.125C989.257 180.442 994.314 180.951 996.29 184.387C1001.92 194.17 992.316 197.724 985.524 198.901C985.375 212.093 985.392 225.287 985.575 238.479C987.683 238.779 993.653 239.281 994.502 240.969C996.745 245.429 995.924 260.102 995.051 264.646C992.053 280.263 971.234 277.549 959.228 277.556L924.409 277.563C913.694 277.567 902.815 277.552 892.109 277.752C881.293 277.954 878.81 276.504 874.653 266.366C864.121 259.73 852.77 253.332 840.043 254.644L803.895 342.467C798.719 355.125 790.348 373.96 786.237 386.158C782.581 384.21 774.146 381.038 770.1 379.439C763.949 377.01 755.988 373.577 749.788 371.669C767.136 328.487 785.175 285.455 802.951 242.436C807.293 231.929 803.775 226.327 808.413 216.843C811.356 210.825 816.149 206.618 822.184 203.779C827.774 201.15 835.625 201.768 839.913 200.451C850.039 197.34 866.136 191.813 875.384 187.2L875.294 177.612C846.164 170.384 831.372 164.251 833.131 130.349C833.33 126.51 832.438 121.712 834.508 118.29C839.627 115.771 863.676 116.853 871.143 116.666ZM893.479 180.69L942.804 180.752C950.172 180.745 961.231 180.322 968.201 180.774C967.523 165.517 968.256 150.549 967.407 135.063C945.251 133.442 916.06 134.321 893.429 134.539L893.479 180.69ZM893.455 198.549C893.418 210.993 893.004 225.671 894.111 237.921C907.33 240.226 923.595 238.852 937.312 239.015C947.732 239.105 956.753 239.253 967.179 238.528C968.223 224.774 967.941 212.252 967.794 198.473C953.342 198.367 938.888 198.358 924.436 198.446L893.455 198.549Z"/><path fill="#3E4549" d="M638.282 567.837C641.166 562.123 644.62 552.975 647.228 546.751L664.429 505.673L716.7 381.056C718.37 377.066 722.336 366.923 726.459 365.541C732.809 363.413 743.874 369.108 749.788 371.669C755.988 373.577 763.949 377.01 770.1 379.439C774.146 381.038 782.581 384.21 786.237 386.158C792.329 388.384 801.675 391.642 798.833 400.037C794.808 411.924 790.04 423.583 785.403 435.246L762.437 492.895L688.55 678.902C673.412 642.946 654.735 603.344 638.282 567.837Z"/></svg>